<svg id="Layer_1" data-name="Layer 1" xmlns="http://www.w3.org/2000/svg" viewBox="0 0 1920 1080"><defs><style>.cls-1{fill:#fce7e3;}.cls-2{fill:none;stroke:#fff;stroke-miterlimit:10;stroke-width:3px;}.cls-3{fill:#fcd3cc;}.cls-4{fill:#6c83c1;}.cls-5{fill:#fbfcf3;}</style></defs><rect class="cls-1" width="1920" height="1080"/><rect class="cls-2" x="587.15" y="316.66" width="743.74" height="629.32" rx="27.79"/><line class="cls-2" x1="587.15" y1="395.08" x2="1330.89" y2="395.08"/><rect class="cls-3" x="324.73" y="644.78" width="431.2" height="184.42" rx="28.75"/><line class="cls-2" x1="324.73" y1="711.46" x2="755.92" y2="711.46"/><circle class="cls-2" cx="374.64" cy="680.81" r="8.82"/><circle class="cls-2" cx="405.86" cy="680.81" r="8.82"/><circle class="cls-2" cx="437.08" cy="680.81" r="8.82"/><rect class="cls-4" x="395.4" y="209.74" width="153.67" height="139.64" rx="21.77"/><circle class="cls-2" cx="466.22" cy="274.74" r="29.36"/><line class="cls-2" x1="484.32" y1="251.64" x2="447.64" y2="297.47"/><rect class="cls-3" x="337.62" y="427.96" width="244.38" height="15.6" rx="2.43"/><rect class="cls-4" x="414.68" y="518.67" width="50.73" height="50.73" rx="7.91"/><rect class="cls-3" x="642.53" y="1010.55" width="105.48" height="18.37" rx="2.86"/><rect class="cls-3" x="1242.21" y="1005.73" width="32.16" height="28.52" rx="4.45"/><rect class="cls-4" x="1516.93" y="395.08" width="29.08" height="29.08" rx="4.53"/><rect class="cls-3" x="1231.97" y="223.71" width="217.29" height="185.9" rx="17.97"/><rect class="cls-4" x="1189.39" y="531.92" width="407.57" height="321.13" rx="32.95"/><line class="cls-2" x1="1189.39" y1="596.08" x2="1596.96" y2="596.08"/><circle class="cls-2" cx="1229.94" cy="563.36" r="8.82"/><circle class="cls-2" cx="1261.16" cy="563.36" r="8.82"/><circle class="cls-2" cx="1292.38" cy="563.36" r="8.82"/><circle class="cls-2" cx="644.62" cy="355.07" r="12.17"/><circle class="cls-2" cx="687.67" cy="355.07" r="12.17"/><circle class="cls-2" cx="730.71" cy="355.07" r="12.17"/><rect class="cls-3" x="876.1" y="176.1" width="167.26" height="17.53" rx="2.73"/><polygon class="cls-5" points="390.29 947.97 414.93 966.54 442.43 931.9 460.29 949.22 473.87 866.18 400.29 896.54 420.29 912.61 390.29 947.97"/></svg>