<svg id="Layer_1" data-name="Layer 1" xmlns="http://www.w3.org/2000/svg" viewBox="0 0 598.75 336.8"><defs><style>.cls-1{fill:#fce7e3;}.cls-2{fill:none;stroke:#fff;stroke-miterlimit:10;stroke-width:2px;}.cls-3{fill:#fcd3cc;}.cls-4{fill:#6c83c1;}.cls-5{font-size:46.78px;fill:#fff;font-family:Multicolore-Regular, Multicolore;}.cls-6{fill:#fbfcf3;}</style></defs><rect class="cls-1" width="598.75" height="336.8"/><rect class="cls-2" x="183.1" y="98.75" width="231.93" height="196.25" rx="27.79"/><line class="cls-2" x1="183.1" y1="123.2" x2="415.03" y2="123.2"/><rect class="cls-3" x="101.27" y="201.07" width="134.47" height="57.51" rx="28.75"/><line class="cls-2" x1="101.27" y1="221.87" x2="235.73" y2="221.87"/><circle class="cls-2" cx="116.83" cy="212.31" r="2.75"/><circle class="cls-2" cx="126.57" cy="212.31" r="2.75"/><circle class="cls-2" cx="136.3" cy="212.31" r="2.75"/><rect class="cls-4" x="123.31" y="65.41" width="47.92" height="43.55" rx="21.77"/><circle class="cls-2" cx="145.39" cy="85.68" r="9.16"/><line class="cls-2" x1="151.03" y1="78.47" x2="139.59" y2="92.77"/><rect class="cls-3" x="105.29" y="133.46" width="76.21" height="4.86" rx="2.43"/><rect class="cls-4" x="129.32" y="161.75" width="15.82" height="15.82" rx="7.91"/><rect class="cls-3" x="200.37" y="315.14" width="32.89" height="5.73" rx="2.86"/><rect class="cls-3" x="387.38" y="313.63" width="10.03" height="8.89" rx="4.45"/><rect class="cls-4" x="473.05" y="123.2" width="9.07" height="9.07" rx="4.53"/><rect class="cls-3" x="384.19" y="69.76" width="67.76" height="57.97" rx="17.97"/><rect class="cls-4" x="370.91" y="165.88" width="127.1" height="100.15" rx="32.95"/><line class="cls-2" x1="370.91" y1="185.89" x2="498.01" y2="185.89"/><circle class="cls-2" cx="383.55" cy="175.68" r="2.75"/><circle class="cls-2" cx="393.29" cy="175.68" r="2.75"/><circle class="cls-2" cx="403.03" cy="175.68" r="2.75"/><text class="cls-5" transform="translate(388.73 235.48)">404</text><circle class="cls-2" cx="201.02" cy="110.73" r="3.8"/><circle class="cls-2" cx="214.45" cy="110.73" r="3.8"/><circle class="cls-2" cx="227.87" cy="110.73" r="3.8"/><rect class="cls-3" x="273.21" y="54.92" width="52.16" height="5.47" rx="2.73"/><polygon class="cls-6" points="121.71 295.62 129.4 301.42 137.97 290.61 143.54 296.01 147.77 270.12 124.83 279.58 131.07 284.6 121.71 295.62"/></svg>