<svg id="Layer_1" data-name="Layer 1" xmlns="http://www.w3.org/2000/svg" viewBox="0 0 48 48"><defs><style>.cls-1{fill:#fff;}.cls-2{fill:#cd8c6a;}</style></defs><path class="cls-1" d="M330.18,396.41a24,24,0,1,1-24-24A24,24,0,0,1,330.18,396.41Z" transform="translate(-282.18 -372.41)"/><path class="cls-2" d="M315.38,381.41H297a5.8,5.8,0,0,0-5.79,5.8v18.4a5.8,5.8,0,0,0,5.79,5.8h18.41a5.81,5.81,0,0,0,5.8-5.8v-18.4A5.81,5.81,0,0,0,315.38,381.41Zm1.66,3.46h.66V390l-5.06,0,0-5.09Zm-15.14,8.46a5.27,5.27,0,1,1-1,3.08A5.26,5.26,0,0,1,301.9,393.33Zm16.35,12.28a2.88,2.88,0,0,1-2.87,2.88H297a2.88,2.88,0,0,1-2.87-2.88V393.33h4.48a8.09,8.09,0,0,0-.61,3.08,8.21,8.21,0,0,0,16.41,0,8.09,8.09,0,0,0-.61-3.08h4.48Z" transform="translate(-282.18 -372.41)"/></svg>