<svg id="leaves" xmlns="http://www.w3.org/2000/svg" viewBox="0 0 106.81 94.64"><defs><style>.cls-1,.cls-2{fill:#65654c;stroke:#65654c;stroke-miterlimit:10;}.cls-2{stroke-width:2px;}</style></defs><path id="top" class="cls-1" d="M66.74,77.08c22.36-11.06,12-39.42,0-53.29C50.21,42.67,47.7,68.39,66.74,77.08Z" transform="translate(-13.97 -23.03)"/><path id="right" class="cls-1" d="M74.16,94.21c20.85,13.69,40.09-9.57,46-27C95.47,62.54,72,73.39,74.16,94.21Z" transform="translate(-13.97 -23.03)"/><path id="left" class="cls-1" d="M60.4,94.24C62.34,69.38,32.69,63.73,14.62,67,22.37,90.83,43.19,106.15,60.4,94.24Z" transform="translate(-13.97 -23.03)"/><line id="path" class="cls-2" x1="52.68" y1="35.84" x2="52.68" y2="94.64"/><line id="path_1" data-name="path 1" class="cls-2" x1="33.73" y1="63.4" x2="52.68" y2="74.93"/><line id="path_2" data-name="path 2" class="cls-2" x1="74.65" y1="63.24" x2="52.68" y2="74.93"/></svg>