<svg id="leaves_2" data-name="leaves 2" xmlns="http://www.w3.org/2000/svg" viewBox="0 0 124.74 192.93"><defs><style>.cls-1,.cls-2{fill:#65654c;stroke:#65654c;stroke-miterlimit:10;}.cls-1{stroke-width:2px;}</style></defs><line id="center_path" data-name="center path" class="cls-1" x1="61.67" y1="65.38" x2="61.67" y2="192.93"/><line id="left_path" data-name="left path" class="cls-1" x1="46.27" y1="93.68" x2="61.67" y2="108.37"/><line id="right_paht" data-name="right paht" class="cls-1" x1="78.55" y1="92.43" x2="61.67" y2="108.37"/><line id="left_path_2" data-name="left path 2" class="cls-1" x1="46.27" y1="132.36" x2="61.67" y2="147.21"/><line id="right_path_2" data-name="right path 2" class="cls-1" x1="76.89" y1="131.04" x2="61.67" y2="147.21"/><line id="left_path_3" data-name="left path 3" class="cls-1" x1="44.12" y1="172.35" x2="61.67" y2="188.1"/><line id="right_path_3" data-name="right path 3" class="cls-1" x1="77.65" y1="172.31" x2="61.55" y2="188.13"/><path id="top_leave" data-name="top leave" class="cls-2" d="M73.72,89.85C92.85,73.54,90,51.32,73.72,25.5,61,52,55.39,71.51,73.72,89.85Z" transform="translate(-12.04 -24.47)"/><path id="right_leave" data-name="right leave" class="cls-2" d="M90.6,116.9c25.06,2,38.72-15.77,45.49-45.5C108.34,81.16,90.61,91,90.6,116.9Z" transform="translate(-12.04 -24.47)"/><path id="right_leave_1" data-name="right leave 1" class="cls-2" d="M88.93,155.51c25.06,2,38.72-15.77,45.5-45.5C106.67,119.77,88.94,129.58,88.93,155.51Z" transform="translate(-12.04 -24.47)"/><path id="right_leave_2" data-name="right leave 2" class="cls-2" d="M87.09,199.67c25.06,2,38.73-15.77,45.5-45.5C104.84,163.93,87.1,173.74,87.09,199.67Z" transform="translate(-12.04 -24.47)"/><path id="left_leave" data-name="left leave" class="cls-2" d="M58.31,118.15c2-25.06-15.76-38.73-45.49-45.5C22.58,100.4,32.39,118.14,58.31,118.15Z" transform="translate(-12.04 -24.47)"/><path id="left_leave_2" data-name="left leave 2" class="cls-2" d="M58.31,156.83c2-25.06-15.76-38.73-45.49-45.5C22.58,139.08,32.39,156.82,58.31,156.83Z" transform="translate(-12.04 -24.47)"/><path id="left_leave_3" data-name="left leave 3" class="cls-2" d="M58.31,198.51c2-25.06-15.76-38.72-45.49-45.49C22.58,180.77,32.39,198.5,58.31,198.51Z" transform="translate(-12.04 -24.47)"/></svg>