<svg id="Layer_1" data-name="Layer 1" xmlns="http://www.w3.org/2000/svg" viewBox="0 0 153.5 153.5"><defs><style>.cls-1{fill:#fff;}.cls-2{fill:#d19774;}</style></defs><path class="cls-1" d="M169.74,26.72H96.19C53.81,26.72,21,60.59,21,103v73.56c0,1.76-.16,3.69,1.61,3.69H96.19c42.39,0,78.34-34.85,78.34-77.25V29.42C174.53,27.65,171.5,26.72,169.74,26.72Z" transform="translate(-21.02 -26.72)"/><rect class="cls-2" x="28.78" y="60.76" width="22.39" height="63.96"/><path class="cls-2" d="M61,77.89A11.19,11.19,0,1,0,49.81,66.7,11.2,11.2,0,0,0,61,77.89Z" transform="translate(-21.02 -26.72)"/><path class="cls-2" d="M145.74,116.29c0-17.26-3.72-28.81-23.84-28.81-9.67,0-16.16,3.6-18.81,8.64h-.27V87.48H85v64h18.64v-31.7c0-8.36,1.58-16.45,11.92-16.45,10.19,0,11,9.56,11,17v31.16h19.18Z" transform="translate(-21.02 -26.72)"/></svg>