<svg id="logo" xmlns="http://www.w3.org/2000/svg" viewBox="0 0 315.98 209.38"><defs><style>.cls-1,.cls-3{fill:none;stroke-miterlimit:10;stroke-width:3px;}.cls-1{stroke:#a55e3f;stroke-linecap:round;}.cls-2{font-size:37px;fill:#ba8888;font-family:Athelas-Regular, Athelas;letter-spacing:0.07em;}.cls-3{stroke:#cd8c6a;}.cls-4{fill:#a55e3f;}</style></defs><path id="shape2" class="cls-1" d="M4.62,105.52C9.53,107.87,97.93,122.66,148.09,93" transform="translate(-3.12 -18.39)"/><text class="cls-2" transform="translate(54.72 194.36)"><tspan xml:space="preserve">L I N H   L E</tspan></text><circle id="circle" class="cls-3" cx="165.64" cy="69.89" r="68.39"/><path class="cls-4" d="M149.5,111.09c4.49.37,11-6.37,14.69-13.57.66-1.22,1.69-1.31,2.06,0,.47,1.49.1,3.55-.93,5.8-1.31,2.81-8.15,10.58-15.63,10.39-6.46-.19-9.93-4.68-7.77-14.79,3.46-16.29,14.13-33.23,23.68-43.15,1.4-1.5,2.71-1.68,4-.47,2.72,2.44,3.28,5.9,2.15,10.3-2.9,11.51-13.38,22.74-21.71,28.17C146.32,102.94,145.29,110.71,149.5,111.09Zm19.09-47.46c-1.21-.74-8.14,9.64-14.6,21.62q-1.26,2.25-2.25,4.5C164.57,79.36,169.81,64.38,168.59,63.63Z" transform="translate(-3.12 -18.39)"/><path class="cls-4" d="M171,111.09c4.49.37,15.44-13.82,16.68-13.62,1.55.24-.68,4.29-1.07,4.74s-7.94,11.69-15.43,11.5c-6.45-.19-9.92-4.68-7.77-14.79,3.47-16.29,14.14-33.23,23.69-43.15,1.4-1.5,2.71-1.68,4-.47,2.71,2.44,3.28,5.9,2.15,10.3-2.9,11.51-13.38,22.74-21.71,28.17C167.84,102.94,166.82,110.71,171,111.09Zm19.09-47.46c-1.22-.74-8.14,9.64-14.6,21.62q-1.26,2.25-2.25,4.5C186.1,79.36,191.34,64.38,190.12,63.63Z" transform="translate(-3.12 -18.39)"/><path id="shape" class="cls-1" d="M317.6,88.86C292.17,91,197.89,78.57,183.14,104.32" transform="translate(-3.12 -18.39)"/></svg>