<svg id="Layer_1" data-name="Layer 1" xmlns="http://www.w3.org/2000/svg" viewBox="0 0 48 48"><defs><style>.cls-1{fill:#fff;}.cls-2{fill:#cd8c6a;}</style></defs><path class="cls-1" d="M50.79,27.7a24,24,0,1,1-24-24A24,24,0,0,1,50.79,27.7Z" transform="translate(-2.79 -3.7)"/><path class="cls-2" d="M41,16.14a12.56,12.56,0,0,1-3.91,1.48,6.22,6.22,0,0,0-4.5-1.92,6.11,6.11,0,0,0-6.15,6.06,5.67,5.67,0,0,0,.16,1.38,17.55,17.55,0,0,1-12.69-6.33,6,6,0,0,0,1.91,8.09A6.12,6.12,0,0,1,13,24.14v.08a6.09,6.09,0,0,0,4.94,5.94,6.28,6.28,0,0,1-2.78.1,6.14,6.14,0,0,0,5.75,4.21,12.45,12.45,0,0,1-7.65,2.59A11.85,11.85,0,0,1,11.79,37a17.64,17.64,0,0,0,9.44,2.72A17.25,17.25,0,0,0,38.74,22.46c0-.26,0-.52,0-.78a12.22,12.22,0,0,0,3.07-3.14,12.29,12.29,0,0,1-3.53,1A6.15,6.15,0,0,0,41,16.14Z" transform="translate(-2.79 -3.7)"/></svg>