<svg id="Layer_1" data-name="Layer 1" xmlns="http://www.w3.org/2000/svg" viewBox="0 0 48 48"><defs><style>.cls-1{fill:#fff;}.cls-2{fill:#cd8c6a;}</style></defs><path class="cls-1" d="M330.18,396.41a24,24,0,1,1-24-24A24,24,0,0,1,330.18,396.41Z" transform="translate(-282.18 -372.41)"/><path class="cls-2" d="M314.2,401.6a.59.59,0,0,0-.52.22,1.11,1.11,0,0,0-.16.69v.79h1.35v-.79a1.18,1.18,0,0,0-.16-.69A.59.59,0,0,0,314.2,401.6Z" transform="translate(-282.18 -372.41)"/><path class="cls-2" d="M309,401.58a.71.71,0,0,0-.32.07,1.12,1.12,0,0,0-.32.24v4.83a1.41,1.41,0,0,0,.36.28,1,1,0,0,0,.37.08.5.5,0,0,0,.41-.16.86.86,0,0,0,.13-.54v-4a.9.9,0,0,0-.16-.59A.56.56,0,0,0,309,401.58Z" transform="translate(-282.18 -372.41)"/><path class="cls-2" d="M315.7,395.41h-19a5.8,5.8,0,0,0-5.48,5.9v4.5a5.54,5.54,0,0,0,5.48,5.6h19a5.55,5.55,0,0,0,5.48-5.6v-4.5A5.81,5.81,0,0,0,315.7,395.41Zm-15,3.8h-1.77v9h-1.71v-9h-1.77v-1.53h5.25Zm5,9h-1.52v-.85a3.4,3.4,0,0,1-.88.72,1.85,1.85,0,0,1-.88.24.94.94,0,0,1-.79-.34,1.7,1.7,0,0,1-.27-1v-6.49h1.52v5.95a.67.67,0,0,0,.09.4.39.39,0,0,0,.32.12.82.82,0,0,0,.42-.16,2.06,2.06,0,0,0,.47-.42v-5.89h1.52Zm5.5-1.6a2,2,0,0,1-.35,1.26,1.26,1.26,0,0,1-1,.44,1.85,1.85,0,0,1-.8-.17,2,2,0,0,1-.65-.53v.6H306.8V397.68h1.53v3.39a2.42,2.42,0,0,1,.65-.54,1.45,1.45,0,0,1,.7-.19,1.3,1.3,0,0,1,1.1.5,2.3,2.3,0,0,1,.38,1.45Zm5.27-2.1h-2.91V406a1.71,1.71,0,0,0,.15.85.56.56,0,0,0,.52.23.62.62,0,0,0,.53-.2,1.78,1.78,0,0,0,.15-.88v-.36h1.56v.4a2.48,2.48,0,0,1-.58,1.8,2.21,2.21,0,0,1-1.7.6,2,2,0,0,1-1.6-.64A2.5,2.5,0,0,1,312,406v-3.49a2.16,2.16,0,0,1,.65-1.64,2.25,2.25,0,0,1,1.66-.64,2.13,2.13,0,0,1,1.6.59,2.39,2.39,0,0,1,.56,1.69Z" transform="translate(-282.18 -372.41)"/><polygon class="cls-2" points="14.68 9 16.97 16 16.97 20.59 18.9 20.59 18.9 15.78 21.14 9 19.18 9 17.99 13.63 17.87 13.63 16.62 9 14.68 9"/><path class="cls-2" d="M304.14,384.83a2,2,0,0,0-.69,1.58v4.43a2.3,2.3,0,0,0,.67,1.73,2.5,2.5,0,0,0,1.8.65,2.62,2.62,0,0,0,1.83-.62,2.27,2.27,0,0,0,.66-1.73v-4.41a2.1,2.1,0,0,0-.67-1.6,2.48,2.48,0,0,0-1.75-.62A2.72,2.72,0,0,0,304.14,384.83Zm2.53,1.51V391a.73.73,0,0,1-.2.54.8.8,0,0,1-.56.2.68.68,0,0,1-.52-.19.78.78,0,0,1-.18-.55v-4.66a.62.62,0,0,1,.19-.45.73.73,0,0,1,.51-.17.81.81,0,0,1,.55.17A.57.57,0,0,1,306.67,386.34Z" transform="translate(-282.18 -372.41)"/><path class="cls-2" d="M314.67,393v-8.55H313v6.49a2,2,0,0,1-.52.46,1,1,0,0,1-.48.18.42.42,0,0,1-.35-.13.73.73,0,0,1-.11-.44v-6.56h-1.7v7.15a1.81,1.81,0,0,0,.3,1.14,1,1,0,0,0,.89.39,2.11,2.11,0,0,0,1-.27,3.75,3.75,0,0,0,1-.8V393Z" transform="translate(-282.18 -372.41)"/></svg>